<?xml version="1.0" encoding="UTF-8" standalone="no"?>
<!-- Generator: Adobe Illustrator 19.0.0, SVG Export Plug-In . SVG Version: 6.00 Build 0)  -->

<svg
   xmlns:dc="http://purl.org/dc/elements/1.1/"
   xmlns:cc="http://creativecommons.org/ns#"
   xmlns:rdf="http://www.w3.org/1999/02/22-rdf-syntax-ns#"
   xmlns:svg="http://www.w3.org/2000/svg"
   xmlns="http://www.w3.org/2000/svg"
   xmlns:sodipodi="http://sodipodi.sourceforge.net/DTD/sodipodi-0.dtd"
   xmlns:inkscape="http://www.inkscape.org/namespaces/inkscape"
   version="1.1"
   id="Layer_1"
   x="0px"
   y="0px"
   viewBox="0 0 2601.7903 2845.9419"
   xml:space="preserve"
   inkscape:version="0.91 r13725"
   sodipodi:docname="chalk.svg"
   width="2601.7903"
   height="2845.9419"
   inkscape:export-filename="/home/eric/data/WORK/PROJECT/TOOL/CHALK/LOGO/chalk.png"
   inkscape:export-xdpi="90"
   inkscape:export-ydpi="90"><metadata
     id="metadata81"><rdf:RDF><cc:Work
         rdf:about=""><dc:format>image/svg+xml</dc:format><dc:type
           rdf:resource="http://purl.org/dc/dcmitype/StillImage" /><dc:title /></cc:Work></rdf:RDF></metadata><defs
     id="defs79" /><sodipodi:namedview
     pagecolor="#ffffff"
     bordercolor="#666666"
     borderopacity="1"
     objecttolerance="10"
     gridtolerance="10"
     guidetolerance="10"
     inkscape:pageopacity="0"
     inkscape:pageshadow="2"
     inkscape:window-width="1920"
     inkscape:window-height="1056"
     id="namedview77"
     showgrid="false"
     inkscape:zoom="0.1152346"
     inkscape:cx="-1899.5542"
     inkscape:cy="-733.28139"
     inkscape:window-x="0"
     inkscape:window-y="0"
     inkscape:window-maximized="1"
     inkscape:current-layer="Layer_1"
     fit-margin-top="200"
     fit-margin-left="200"
     fit-margin-right="200"
     fit-margin-bottom="200" /><g
     id="g4232"
     transform="translate(5.7414306,-2.4999999e-6)"><path
       inkscape:connector-curvature="0"
       id="path3"
       d="m 1103.9475,1683.6067 727.9512,0 c 17.8297,0 32.2779,14.4482 32.2779,32.2779 0,17.8296 -14.4482,32.2778 -32.2779,32.2778 l -836.35817,0 c 24.41947,0 58.46837,-14.1928 75.66367,-31.5324 l 32.7433,-33.0233 z"
       style="fill:#ff675f" /><path
       inkscape:connector-curvature="0"
       id="path5"
       d="m 1065.8129,644.09172 c 27.3108,-26.99776 27.3108,-70.77904 0,-97.78504 -27.3108,-27.00601 -71.59037,-27.00189 -98.90527,0 -27.319,27.01012 -27.319,70.78316 0,97.78504 27.3149,26.99777 71.59447,26.99777 98.90527,0 z"
       style="fill:#ff8380" /><path
       inkscape:connector-curvature="0"
       id="path7"
       d="m 824.90473,1748.1583 c -24.4195,0 -58.4684,-14.1929 -75.66788,-31.5324 l -57.10512,-57.5787 c -17.19537,-17.3396 -17.19537,-45.7212 0,-63.0607 L 2063.5935,213.00465 c 17.1995,-17.33953 45.3464,-17.33953 62.5418,0 l 210.4919,212.25071 c 17.1954,17.33953 17.1954,45.72116 0,63.06069 L 1118.544,1716.6259 c -17.1954,17.3395 -51.2484,31.5324 -75.6637,31.5324 l -217.97557,0 z"
       style="fill:#ff675f" /><path
       inkscape:connector-curvature="0"
       id="path9"
       d="m 808.83783,1659.0472 c -17.1953,-17.3396 -17.1953,-45.7212 0,-63.0607 L 2153.2236,240.31132 2126.1394,213.00465 c -17.1954,-17.33953 -45.3423,-17.33953 -62.5418,0 L 692.13585,1595.9865 c -17.19537,17.3395 -17.19537,45.7211 0,63.0607 l 57.10512,57.5787 c 17.19946,17.3395 51.25246,31.5324 75.66786,31.5324 l 116.7062,0 c -24.4195,0 -58.4684,-14.1929 -75.6679,-31.5324 l -57.1093,-57.5787 z"
       style="opacity:0.1;enable-background:new" /><g
       transform="matrix(4.1186524,0,0,4.1186524,240.78097,-80.292828)"
       id="g11"><path
         inkscape:connector-curvature="0"
         id="path13"
         d="m 153.996,420.487 c 2.068,0 4.086,-0.836 5.548,-2.299 1.452,-1.452 2.288,-3.469 2.288,-5.538 0,-2.058 -0.837,-4.086 -2.288,-5.538 -1.462,-1.463 -3.48,-2.299 -5.548,-2.299 -2.059,0 -4.075,0.836 -5.539,2.299 -1.463,1.452 -2.298,3.479 -2.298,5.538 0,2.069 0.835,4.086 2.298,5.538 1.463,1.463 3.479,2.299 5.539,2.299 z"
         style="fill:#e01013" /><path
         inkscape:connector-curvature="0"
         id="path15"
         d="m 207.567,366.475 c 2.059,0 4.086,-0.846 5.538,-2.299 1.463,-1.462 2.299,-3.478 2.299,-5.538 0,-2.068 -0.836,-4.086 -2.299,-5.548 -1.452,-1.453 -3.478,-2.288 -5.538,-2.288 -2.069,0 -4.086,0.836 -5.538,2.288 -1.463,1.462 -2.299,3.479 -2.299,5.548 0,2.06 0.836,4.075 2.299,5.538 1.452,1.454 3.469,2.299 5.538,2.299 z"
         style="fill:#e01013" /><path
         inkscape:connector-curvature="0"
         id="path17"
         d="m 234.347,339.466 c 2.058,0 4.086,-0.836 5.538,-2.299 1.463,-1.463 2.299,-3.479 2.299,-5.538 0,-2.069 -0.836,-4.086 -2.299,-5.549 -1.452,-1.452 -3.48,-2.287 -5.538,-2.287 -2.058,0 -4.074,0.836 -5.538,2.287 -1.463,1.463 -2.299,3.48 -2.299,5.549 0,2.058 0.836,4.086 2.299,5.538 1.454,1.463 3.481,2.299 5.538,2.299 z"
         style="fill:#e01013" /><path
         inkscape:connector-curvature="0"
         id="path19"
         d="m 194.255,423.683 c 2.069,0 4.086,-0.836 5.549,-2.287 1.452,-1.463 2.287,-3.479 2.287,-5.549 0,-2.058 -0.836,-4.086 -2.287,-5.538 -1.463,-1.463 -3.48,-2.299 -5.549,-2.299 -2.058,0 -4.075,0.836 -5.538,2.299 -1.462,1.463 -2.299,3.479 -2.299,5.538 0,2.069 0.837,4.086 2.299,5.549 1.463,1.452 3.479,2.287 5.538,2.287 z"
         style="fill:#e01013" /><path
         inkscape:connector-curvature="0"
         id="path21"
         d="m 241.641,375.901 c 2.059,0 4.086,-0.836 5.549,-2.288 1.453,-1.462 2.287,-3.479 2.287,-5.548 0,-2.059 -0.835,-4.075 -2.287,-5.538 -1.463,-1.463 -3.49,-2.299 -5.549,-2.299 -2.057,0 -4.085,0.836 -5.537,2.299 -1.463,1.462 -2.3,3.478 -2.3,5.538 0,2.068 0.837,4.086 2.3,5.548 1.462,1.452 3.479,2.288 5.537,2.288 z"
         style="fill:#e01013" /></g><g
       transform="matrix(4.1186524,0,0,4.1186524,240.78097,-80.292828)"
       id="g23"><path
         inkscape:connector-curvature="0"
         id="path25"
         d="m 307.222,388.701 107.054,0 c 4.328,0 7.837,-3.508 7.837,-7.837 0,-4.329 -3.509,-7.837 -7.837,-7.837 l -107.054,0 c -4.329,0 -7.837,3.508 -7.837,7.837 0,4.33 3.509,7.837 7.837,7.837 z"
         style="fill:#ff8380" /><path
         inkscape:connector-curvature="0"
         id="path27"
         d="m 420.173,443.944 64.627,0 c 4.328,0 7.837,-3.508 7.837,-7.837 0,-4.329 -3.509,-7.837 -7.837,-7.837 l -64.627,0 c -4.329,0 -7.837,3.508 -7.837,7.837 0,4.328 3.509,7.837 7.837,7.837 z"
         style="fill:#ff8380" /><path
         inkscape:connector-curvature="0"
         id="path29"
         d="m 131.577,294.886 c 2.099,2.095 5.533,2.095 7.632,0 L 152.618,281.5 c 2.099,-2.095 2.099,-5.522 0,-7.617 l -13.409,-13.386 c -2.099,-2.096 -5.533,-2.096 -7.632,0 l -13.409,13.386 c -2.1,2.095 -2.1,5.522 0,7.617 l 13.409,13.386 z"
         style="fill:#ff8380" /></g><g
       transform="matrix(4.1186524,0,0,4.1186524,240.78097,-80.292828)"
       id="g31"><path
         inkscape:connector-curvature="0"
         id="path33"
         d="m 43.006,382.571 c 2.098,2.096 5.533,2.096 7.631,0 l 13.41,-13.386 c 2.1,-2.095 2.1,-5.522 0,-7.617 l -13.41,-13.385 c -2.098,-2.095 -5.533,-2.095 -7.631,0 l -13.41,13.385 c -2.098,2.095 -2.098,5.522 0,7.617 l 13.41,13.386 z"
         style="fill:#ef3e3b" /><path
         inkscape:connector-curvature="0"
         id="path35"
         d="m 14.984,282.844 c 2.098,2.095 5.533,2.095 7.631,0 l 13.411,-13.388 c 2.099,-2.095 2.098,-5.522 -0.001,-7.617 l -13.41,-13.383 c -2.098,-2.095 -5.533,-2.095 -7.631,0 L 1.575,261.839 c -2.099,2.095 -2.099,5.522 -10e-4,7.617 l 13.41,13.388 z"
         style="fill:#ef3e3b" /></g><g
       transform="matrix(4.1186524,0,0,4.1186524,240.78097,-80.292828)"
       id="g37"><path
         inkscape:connector-curvature="0"
         id="path39"
         d="m 466.081,142.571 c -3.062,-3.059 -8.023,-3.059 -11.083,0 -3.06,3.062 -3.06,8.023 0,11.083 l 19.283,19.283 11.037,-11.13 -19.237,-19.236 z"
         style="fill:#e01013" /><path
         inkscape:connector-curvature="0"
         id="path41"
         d="m 435.256,173.396 c -3.062,-3.059 -8.023,-3.059 -11.083,0 -3.06,3.062 -3.06,8.023 0,11.083 l 19.411,19.411 11.037,-11.13 -19.365,-19.364 z"
         style="fill:#e01013" /><path
         inkscape:connector-curvature="0"
         id="path43"
         d="m 404.432,204.22 c -3.062,-3.059 -8.023,-3.059 -11.083,0 -3.06,3.062 -3.06,8.023 0,11.083 l 19.54,19.54 11.037,-11.129 -19.494,-19.494 z"
         style="fill:#e01013" /><path
         inkscape:connector-curvature="0"
         id="path45"
         d="m 373.607,235.045 c -3.062,-3.059 -8.023,-3.059 -11.083,0 -3.06,3.062 -3.06,8.023 0,11.083 l 19.668,19.668 11.038,-11.129 -19.623,-19.622 z"
         style="fill:#e01013" /></g></g><g
     id="g47"
     transform="translate(-245.18234,2314.8241)" /><g
     id="g49"
     transform="translate(-245.18234,2314.8241)" /><g
     id="g51"
     transform="translate(-245.18234,2314.8241)" /><g
     id="g53"
     transform="translate(-245.18234,2314.8241)" /><g
     id="g55"
     transform="translate(-245.18234,2314.8241)" /><g
     id="g57"
     transform="translate(-245.18234,2314.8241)" /><g
     id="g59"
     transform="translate(-245.18234,2314.8241)" /><g
     id="g61"
     transform="translate(-245.18234,2314.8241)" /><g
     id="g63"
     transform="translate(-245.18234,2314.8241)" /><g
     id="g65"
     transform="translate(-245.18234,2314.8241)" /><g
     id="g67"
     transform="translate(-245.18234,2314.8241)" /><g
     id="g69"
     transform="translate(-245.18234,2314.8241)" /><g
     id="g71"
     transform="translate(-245.18234,2314.8241)" /><g
     id="g73"
     transform="translate(-245.18234,2314.8241)" /><g
     id="g75"
     transform="translate(-245.18234,2314.8241)" /><text
     xml:space="preserve"
     style="font-style:normal;font-weight:normal;font-size:52.3888588px;line-height:125%;font-family:sans-serif;letter-spacing:0px;word-spacing:0px;fill:#000000;fill-opacity:1;stroke:none;stroke-width:1px;stroke-linecap:butt;stroke-linejoin:miter;stroke-opacity:1"
     x="100.95232"
     y="2627.1147"
     id="text4228"
     sodipodi:linespacing="125%"><tspan
       sodipodi:role="line"
       id="tspan4230"
       x="100.95232"
       y="2627.1147"
       style="font-style:normal;font-variant:normal;font-weight:bold;font-stretch:normal;font-size:818.57592773px;font-family:Purisa;-inkscape-font-specification:'Purisa Bold'">Chalk</tspan></text>
</svg>